<svg width="14" height="8" viewBox="0 0 14 8" fill="none" xmlns="http://www.w3.org/2000/svg">
<path d="M13.6888 1.80005C14.0325 1.46868 14.1021 0.84188 13.8444 0.400057C13.5866 -0.0417682 13.0991 -0.13131 12.7555 0.200058L13.6888 1.80005ZM7 7.00001L6.53334 7.8C6.80986 8.06667 7.19014 8.06667 7.46666 7.8L7 7.00001ZM1.24448 0.200057C0.900841 -0.131311 0.413333 -0.0417689 0.1556 0.400057C-0.102131 0.84188 -0.0324868 1.46868 0.311155 1.80005L1.24448 0.200057ZM12.7555 0.200058L6.53334 6.20001L7.46666 7.8L13.6888 1.80005L12.7555 0.200058ZM7.46666 6.20001L1.24448 0.200057L0.311155 1.80005L6.53334 7.8L7.46666 6.20001Z" fill="white"/>
</svg>
