<svg width="20" height="18" viewBox="0 0 20 18" fill="none" xmlns="http://www.w3.org/2000/svg">
<path d="M10 11.9491L19.166 5.63076L11.2 0.36853C10.8566 0.131388 10.4392 0.00217938 10.0096 2.73249e-05C9.58011 -0.00212473 9.16123 0.122894 8.815 0.356581L0.834 5.63076L10 11.9491Z" fill="white"/>
<path d="M11.2 13.4198C10.8533 13.6573 10.4324 13.7856 10 13.7856C9.56758 13.7856 9.14671 13.6573 8.8 13.4198L0 7.35328V16.1617C0 16.6492 0.210714 17.1168 0.585786 17.4616C0.960859 17.8063 1.46957 18 2 18H18C18.5304 18 19.0391 17.8063 19.4142 17.4616C19.7893 17.1168 20 16.6492 20 16.1617V7.35328L11.2 13.4198Z" fill="white"/>
</svg>
