<svg width="20" height="14" viewBox="0 0 20 14" fill="none" xmlns="http://www.w3.org/2000/svg">
<path d="M10 7.85307L19.275 0.440533C18.9189 0.15812 18.4673 0.00210924 18 0H2C1.53267 0.00210924 1.08115 0.15812 0.725 0.440533L10 7.85307Z" fill="white"/>
<path d="M11.25 9.31187C10.8861 9.57169 10.4412 9.71358 9.983 9.716C9.556 9.71681 9.14034 9.58772 8.799 9.34827L0 2.3184V12.1333C0 12.6284 0.210714 13.1032 0.585786 13.4533C0.960859 13.8033 1.46957 14 2 14H18C18.5304 14 19.0391 13.8033 19.4142 13.4533C19.7893 13.1032 20 12.6284 20 12.1333V2.3184L11.25 9.31187Z" fill="white"/>
</svg>
