<svg width="7" height="12" viewBox="0 0 7 12" fill="none" xmlns="http://www.w3.org/2000/svg">
<path d="M1.17863 12C0.948386 11.9999 0.723325 11.9296 0.531899 11.7979C0.340472 11.6662 0.191275 11.4791 0.103171 11.2601C0.0150666 11.0411 -0.0079897 10.8002 0.0369154 10.5677C0.0818205 10.3353 0.192672 10.1217 0.355455 9.95411L4.18957 6.00736L0.355455 2.06061C0.24425 1.95005 0.155549 1.8178 0.0945278 1.67158C0.0335067 1.52535 0.00138738 1.36808 4.39599e-05 1.20894C-0.00129946 1.0498 0.0281608 0.89198 0.086704 0.744686C0.145247 0.597391 0.231702 0.463573 0.341023 0.35104C0.450345 0.238507 0.580343 0.149513 0.723434 0.0892499C0.866526 0.0289869 1.01984 -0.00133763 1.17444 4.52529e-05C1.32904 0.00142813 1.48182 0.034491 1.62387 0.0973047C1.76593 0.160118 1.8944 0.251425 2.00181 0.365896L6.6591 5.16001C6.87738 5.38476 7 5.68956 7 6.00736C7 6.32517 6.87738 6.62997 6.6591 6.85472L2.00181 11.6488C1.78351 11.8736 1.4874 11.9999 1.17863 12Z" fill="white"/>
</svg>
