<svg width="12" height="9" viewBox="0 0 12 9" fill="none" xmlns="http://www.w3.org/2000/svg">
<path d="M4.29324 8.99999C4.0974 9.00084 3.90902 8.91805 3.7684 8.76932L0.226464 5.01972C0.155867 4.94453 0.0995364 4.8549 0.0606889 4.75596C0.0218415 4.65702 0.00123773 4.5507 5.41344e-05 4.44307C-0.00233624 4.2257 0.0745209 4.0162 0.213718 3.86065C0.352915 3.7051 0.543049 3.61625 0.742294 3.61365C0.941538 3.61104 1.13357 3.69489 1.27615 3.84674L4.29624 7.04258L10.7233 0.232926C10.8661 0.081067 11.0583 -0.00269504 11.2577 6.61635e-05C11.4571 0.00282737 11.6473 0.0918858 11.7865 0.247649C11.9257 0.403413 12.0025 0.613122 11.9999 0.830643C11.9974 1.04816 11.9158 1.25568 11.773 1.40754L4.81809 8.76932C4.67747 8.91805 4.48909 9.00084 4.29324 8.99999Z" fill="white"/>
</svg>
